<svg xmlns="http://www.w3.org/2000/svg" width="56" height="56" viewBox="0 0 56 56">
    <defs>
        <style>
            .cls-1{fill:rgba(37,40,47,.3)}.cls-2{clip-path:url(#clip-path)}.cls-3{fill:#fff}
        </style>
        <clipPath id="clip-path">
            <circle id="다운로드" cx="28" cy="28" r="28" class="cls-1"/>
        </clipPath>
    </defs>
    <g id="마스크_그룹_16" class="cls-2" data-name="마스크 그룹 16">
        <path id="패스_4625" d="M884.5 238.038c.741 0 1.519-.009 2.319-.023l-2.229 2.719-2.359-2.72c.73.013 1.479.024 2.269.024zm6.26 2.691l2.228-2.968q-2.61.158-4.9.221zm-13.5-2.948h-.081l1.821 2.571 1.968-2.368-.183-.01a86.412 86.412 0 0 1-3.525-.194zm-3.361 1.65l1.882-1.718-3.2-.4zm37.821-4.842a10.609 10.609 0 0 1-2.259 6 15.4 15.4 0 0 1-6.052 4.153c-.214.086-.424.149-.637.22a32.474 32.474 0 0 1 4.87 11.354 30.4 30.4 0 0 1-29.528.685 22.172 22.172 0 0 1 1.138-4.782 29.594 29.594 0 0 1 3.22-6.706 20.413 20.413 0 0 1-8.11-1.984 9.87 9.87 0 0 1-4.27-4.036 6.492 6.492 0 0 1-.6-1.639 9.8 9.8 0 0 1 3.18-9.241c1.969-1.709 4.027-2.427 6.911-3.09.619-.144 1.36-.285 2.078-.426a24.856 24.856 0 0 0 3.553-.841c.023-.12.047-.3.069-.448.241-1.665.88-6.088 5.705-6.539a.191.191 0 0 1 .039 0c2.5-.036 4.037 2.123 4.741 3.449.849-1.488 2.461-3.5 4.966-3.5 2.984 0 5.422 3.025 5.52 6.792.1.084.2.173.3.258 2.062 1.756 5.508 4.708 5.167 10.32zm-23.1-13.821l2.3.547a1.779 1.779 0 0 0-1.226 1.716 1.7 1.7 0 1 0 3.4 0 1.828 1.828 0 0 0-.572-1.335l.607.145a.47.47 0 0 0 .12.013.509.509 0 0 0 .116-1.005l-4.5-1.076a.511.511 0 0 0-.236.995zm-13.391 13.169a.729.729 0 1 0 .726-.82.778.778 0 0 0-.729.819zm-2.7-.18a.729.729 0 1 0 .723-.825.775.775 0 0 0-.725.823zm21.671 3.35a.435.435 0 0 0-.371-.214l-6.138.243-6.381.023c-.017 0-.032.012-.048.014-.332-.011-.683-.018-1-.031l-2.171-.117a45.067 45.067 0 0 1-8.776-1.27c-.008.278-.02.557 0 .834.458.125 1.172.3 2.184.485l1.977 3.191a.4.4 0 0 0 .285.185.379.379 0 0 0 .055 0 .4.4 0 0 0 .27-.1l2.39-2.18 2.179 3.074a.4.4 0 0 0 .312.169h.016a.4.4 0 0 0 .308-.145l2.3-2.772 2.708 3.124a.4.4 0 0 0 .3.138.329.329 0 0 0 .31-.146l2.555-3.116 3.049 3.13a.4.4 0 0 0 .287.121h.026a.4.4 0 0 0 .295-.16l3.041-4.051a.4.4 0 0 0 .038-.43zm9.682-16.95a.511.511 0 0 0-.612-.384l-4.7 1.073a.51.51 0 0 0 .113 1.008.566.566 0 0 0 .115-.011l.392-.089a1.841 1.841 0 0 0-.507 1.277 1.7 1.7 0 1 0 3.4 0 1.786 1.786 0 0 0-1.12-1.682l2.542-.581a.511.511 0 0 0 .375-.612z" class="cls-3" data-name="패스 4625" transform="translate(-863.866 -204.3)"/>
    </g>
</svg>
